<svg version="1.1" xmlns="http://www.w3.org/2000/svg" xmlns:xlink="http://www.w3.org/1999/xlink" width="296.8232421875" height="313"><defs/><g><text fill="#eeeeee" stroke="none" font-family="Arial" font-size="24px" font-style="normal" font-weight="normal" text-decoration="none" x="0" y="0">UNREGISTERED</text><text fill="#eeeeee" stroke="none" font-family="Arial" font-size="24px" font-style="normal" font-weight="normal" text-decoration="none" x="0" y="30">UNREGISTERED</text><text fill="#eeeeee" stroke="none" font-family="Arial" font-size="24px" font-style="normal" font-weight="normal" text-decoration="none" x="0" y="60">UNREGISTERED</text><text fill="#eeeeee" stroke="none" font-family="Arial" font-size="24px" font-style="normal" font-weight="normal" text-decoration="none" x="0" y="90">UNREGISTERED</text><text fill="#eeeeee" stroke="none" font-family="Arial" font-size="24px" font-style="normal" font-weight="normal" text-decoration="none" x="0" y="120">UNREGISTERED</text><text fill="#eeeeee" stroke="none" font-family="Arial" font-size="24px" font-style="normal" font-weight="normal" text-decoration="none" x="0" y="150">UNREGISTERED</text><text fill="#eeeeee" stroke="none" font-family="Arial" font-size="24px" font-style="normal" font-weight="normal" text-decoration="none" x="0" y="180">UNREGISTERED</text><text fill="#eeeeee" stroke="none" font-family="Arial" font-size="24px" font-style="normal" font-weight="normal" text-decoration="none" x="0" y="210">UNREGISTERED</text><text fill="#eeeeee" stroke="none" font-family="Arial" font-size="24px" font-style="normal" font-weight="normal" text-decoration="none" x="0" y="240">UNREGISTERED</text><text fill="#eeeeee" stroke="none" font-family="Arial" font-size="24px" font-style="normal" font-weight="normal" text-decoration="none" x="0" y="270">UNREGISTERED</text><text fill="#eeeeee" stroke="none" font-family="Arial" font-size="24px" font-style="normal" font-weight="normal" text-decoration="none" x="0" y="300">UNREGISTERED</text><text fill="#eeeeee" stroke="none" font-family="Arial" font-size="24px" font-style="normal" font-weight="normal" text-decoration="none" x="200" y="0">UNREGISTERED</text><text fill="#eeeeee" stroke="none" font-family="Arial" font-size="24px" font-style="normal" font-weight="normal" text-decoration="none" x="200" y="30">UNREGISTERED</text><text fill="#eeeeee" stroke="none" font-family="Arial" font-size="24px" font-style="normal" font-weight="normal" text-decoration="none" x="200" y="60">UNREGISTERED</text><text fill="#eeeeee" stroke="none" font-family="Arial" font-size="24px" font-style="normal" font-weight="normal" text-decoration="none" x="200" y="90">UNREGISTERED</text><text fill="#eeeeee" stroke="none" font-family="Arial" font-size="24px" font-style="normal" font-weight="normal" text-decoration="none" x="200" y="120">UNREGISTERED</text><text fill="#eeeeee" stroke="none" font-family="Arial" font-size="24px" font-style="normal" font-weight="normal" text-decoration="none" x="200" y="150">UNREGISTERED</text><text fill="#eeeeee" stroke="none" font-family="Arial" font-size="24px" font-style="normal" font-weight="normal" text-decoration="none" x="200" y="180">UNREGISTERED</text><text fill="#eeeeee" stroke="none" font-family="Arial" font-size="24px" font-style="normal" font-weight="normal" text-decoration="none" x="200" y="210">UNREGISTERED</text><text fill="#eeeeee" stroke="none" font-family="Arial" font-size="24px" font-style="normal" font-weight="normal" text-decoration="none" x="200" y="240">UNREGISTERED</text><text fill="#eeeeee" stroke="none" font-family="Arial" font-size="24px" font-style="normal" font-weight="normal" text-decoration="none" x="200" y="270">UNREGISTERED</text><text fill="#eeeeee" stroke="none" font-family="Arial" font-size="24px" font-style="normal" font-weight="normal" text-decoration="none" x="200" y="300">UNREGISTERED</text><g transform="translate(-86,-22) scale(1,1)"><rect fill="#C0C0C0" stroke="none" x="191" y="39" width="160" height="100" opacity="0.2"/></g><g transform="translate(-86,-22) scale(1,1)"><rect fill="#ffffff" stroke="none" x="184" y="32" width="160" height="100"/></g><g transform="translate(-86,-22) scale(1,1)"><path fill="none" stroke="#000000" d="M 184 32 L 344 32 L 344 132 L 184 132 L 184 32 Z Z" stroke-miterlimit="10"/></g><g transform="translate(-86,-22) scale(1,1)"><path fill="none" stroke="#000000" d="M 184 57 L 344 57" stroke-miterlimit="10"/></g><g transform="translate(-86,-22) scale(1,1)"><path fill="none" stroke="#000000" d="M 184 95 L 344 95" stroke-miterlimit="10"/></g><g transform="translate(-86,-22) scale(1,1)"><g><path fill="none" stroke="none"/><text fill="#000000" stroke="none" font-family="Arial" font-size="13px" font-style="normal" font-weight="bold" text-decoration="none" x="233.293212890625" y="51.5">Instrument</text></g></g><g transform="translate(-86,-22) scale(1,1)"><g><path fill="none" stroke="none"/><text fill="#000000" stroke="none" font-family="Arial" font-size="13px" font-style="normal" font-weight="normal" text-decoration="none" x="189" y="74.5">+make: String</text></g></g><g transform="translate(-86,-22) scale(1,1)"><g><path fill="none" stroke="none"/><text fill="#000000" stroke="none" font-family="Arial" font-size="13px" font-style="normal" font-weight="normal" text-decoration="none" x="189" y="89.5">+model: String</text></g></g><g transform="translate(-86,-22) scale(1,1)"><g><path fill="none" stroke="none"/><text fill="#000000" stroke="none" font-family="Arial" font-size="13px" font-style="normal" font-weight="normal" text-decoration="none" x="189" y="112.5">+getMake()</text></g></g><g transform="translate(-86,-22) scale(1,1)"><g><path fill="none" stroke="none"/><text fill="#000000" stroke="none" font-family="Arial" font-size="13px" font-style="normal" font-weight="normal" text-decoration="none" x="189" y="127.5">+getModel()</text></g></g><g transform="translate(-86,-22) scale(1,1)"><rect fill="#C0C0C0" stroke="none" x="103" y="247" width="111.22900390625" height="85" opacity="0.2"/></g><g transform="translate(-86,-22) scale(1,1)"><rect fill="#ffffff" stroke="none" x="96" y="240" width="111.22900390625" height="85"/></g><g transform="translate(-86,-22) scale(1,1)"><path fill="none" stroke="#000000" d="M 96 240 L 207.22900390625 240 L 207.22900390625 325 L 96 325 L 96 240 Z Z" stroke-miterlimit="10"/></g><g transform="translate(-86,-22) scale(1,1)"><path fill="none" stroke="#000000" d="M 96 265 L 207.22900390625 265" stroke-miterlimit="10"/></g><g transform="translate(-86,-22) scale(1,1)"><path fill="none" stroke="#000000" d="M 96 288 L 207.22900390625 288" stroke-miterlimit="10"/></g><g transform="translate(-86,-22) scale(1,1)"><g><path fill="none" stroke="none"/><text fill="#000000" stroke="none" font-family="Arial" font-size="13px" font-style="normal" font-weight="bold" text-decoration="none" x="133.9140625" y="259.5">Guitar</text></g></g><g transform="translate(-86,-22) scale(1,1)"><g><path fill="none" stroke="none"/><text fill="#000000" stroke="none" font-family="Arial" font-size="13px" font-style="normal" font-weight="normal" text-decoration="none" x="101" y="282.5">+numStrings: int</text></g></g><g transform="translate(-86,-22) scale(1,1)"><g><path fill="none" stroke="none"/><text fill="#000000" stroke="none" font-family="Arial" font-size="13px" font-style="normal" font-weight="normal" text-decoration="none" x="101" y="305.5">+getNumStrings()</text></g></g><g transform="translate(-86,-22) scale(1,1)"><g><path fill="none" stroke="none"/><text fill="#000000" stroke="none" font-family="Arial" font-size="13px" font-style="normal" font-weight="normal" text-decoration="none" x="101" y="320.5">+play()</text></g></g><g transform="translate(-86,-22) scale(1,1)"><rect fill="#C0C0C0" stroke="none" x="271" y="247" width="108.8232421875" height="85" opacity="0.2"/></g><g transform="translate(-86,-22) scale(1,1)"><rect fill="#ffffff" stroke="none" x="264" y="240" width="108.8232421875" height="85"/></g><g transform="translate(-86,-22) scale(1,1)"><path fill="none" stroke="#000000" d="M 264 240 L 372.8232421875 240 L 372.8232421875 325 L 264 325 L 264 240 Z Z" stroke-miterlimit="10"/></g><g transform="translate(-86,-22) scale(1,1)"><path fill="none" stroke="#000000" d="M 264 265 L 372.8232421875 265" stroke-miterlimit="10"/></g><g transform="translate(-86,-22) scale(1,1)"><path fill="none" stroke="#000000" d="M 264 288 L 372.8232421875 288" stroke-miterlimit="10"/></g><g transform="translate(-86,-22) scale(1,1)"><g><path fill="none" stroke="none"/><text fill="#000000" stroke="none" font-family="Arial" font-size="13px" font-style="normal" font-weight="bold" text-decoration="none" x="294.452392578125" y="259.5">Trumpet</text></g></g><g transform="translate(-86,-22) scale(1,1)"><g><path fill="none" stroke="none"/><text fill="#000000" stroke="none" font-family="Arial" font-size="13px" font-style="normal" font-weight="normal" text-decoration="none" x="269" y="282.5">+numValves: int</text></g></g><g transform="translate(-86,-22) scale(1,1)"><g><path fill="none" stroke="none"/><text fill="#000000" stroke="none" font-family="Arial" font-size="13px" font-style="normal" font-weight="normal" text-decoration="none" x="269" y="305.5">+getNumValves()</text></g></g><g transform="translate(-86,-22) scale(1,1)"><g><path fill="none" stroke="none"/><text fill="#000000" stroke="none" font-family="Arial" font-size="13px" font-style="normal" font-weight="normal" text-decoration="none" x="269" y="320.5">+play()</text></g></g><g transform="translate(-86,-22) scale(1,1)"><path fill="none" stroke="#000000" d="M 144 240 L 144 219 L 196 219 L 196 132" stroke-miterlimit="10"/></g><g transform="translate(-86,-22) scale(1,1)"><path fill="#FFFFFF" stroke="none" d="M 204.41903551203197 152.3253497152483 L 196 132 L 187.58096448796803 152.3253497152483"/></g><g transform="translate(-86,-22) scale(1,1)"><path fill="none" stroke="#000000" d="M 204.41903551203197 152.3253497152483 L 196 132 L 187.58096448796803 152.3253497152483 L 204.41903551203197 152.3253497152483" stroke-miterlimit="10"/></g><g transform="translate(-86,-22) scale(1,1)"><path fill="none" stroke="#000000" d="M 320 240 L 320 219 L 304 219 L 304 132" stroke-miterlimit="10"/></g><g transform="translate(-86,-22) scale(1,1)"><path fill="#FFFFFF" stroke="none" d="M 312.419035512032 152.3253497152483 L 304 132 L 295.580964487968 152.3253497152483"/></g><g transform="translate(-86,-22) scale(1,1)"><path fill="none" stroke="#000000" d="M 312.419035512032 152.3253497152483 L 304 132 L 295.580964487968 152.3253497152483 L 312.419035512032 152.3253497152483" stroke-miterlimit="10"/></g></g></svg>